<svg version="1.1" id="Layer_1" xmlns="http://www.w3.org/2000/svg" xmlns:xlink="http://www.w3.org/1999/xlink" x="0px" y="0px"
	 width="100%" viewBox="100 100 300 300" enable-background="new 0 0 500 500" xml:space="preserve">
<path fill="#37B3FC" opacity="1.000000" stroke="none" 
	d="
M329.859314,258.479126 
	C332.170654,258.483978 334.005035,258.448242 335.836792,258.502106 
	C339.601898,258.612823 341.873169,260.549255 341.926819,264.332153 
	C342.054413,273.329529 342.060425,282.331238 341.931610,291.328552 
	C341.873138,295.414093 339.372711,297.198181 335.393463,297.184113 
	C326.727539,297.153442 318.058990,297.057922 309.397461,297.252686 
	C307.666870,297.291595 305.933044,298.442139 304.262878,299.214539 
	C303.702179,299.473816 303.377411,300.201080 302.872223,300.628693 
	C295.197449,307.124847 290.857819,314.888031 292.801636,325.381958 
	C293.625275,329.828491 291.335693,331.807739 286.782684,331.561401 
	C282.794586,331.345581 278.783844,331.438568 274.786530,331.536743 
	C271.305786,331.622223 269.465881,330.302155 269.565613,326.581512 
	C269.686127,322.085052 269.650574,317.582031 269.578461,313.083557 
	C269.525574,309.784485 271.030457,307.590332 274.312195,308.246552 
	C285.746155,310.532990 292.937042,304.764709 299.347290,296.360840 
	C301.686340,293.294312 303.204468,290.646179 303.177643,286.653717 
	C303.119812,278.040253 303.646362,269.421539 303.994690,260.807404 
	C304.110901,257.933624 297.373932,251.058029 294.126160,251.028427 
	C287.127197,250.964645 280.125427,250.909988 273.128448,251.043533 
	C268.879272,251.124634 266.997955,249.159180 267.006012,245.048019 
	C267.020386,237.715210 267.034393,230.382263 267.000458,223.049576 
	C266.982086,219.079651 269.082336,217.217880 272.856140,217.181732 
	C280.188324,217.111465 287.521667,217.143570 294.854401,217.164825 
	C298.979645,217.176788 300.923279,219.350891 300.917267,223.415207 
	C300.907410,230.081406 300.881866,236.747894 300.929962,243.413773 
	C300.976562,249.873062 309.542847,258.465210 315.882172,258.477203 
	C320.381836,258.485718 324.881500,258.479004 329.859314,258.479126 
z"/>
<path fill="#37B3FB" opacity="1.000000" stroke="none" 
	d="
M163.548233,234.172028 
	C168.184204,234.919968 172.524521,235.659683 176.879288,235.757935 
	C185.898453,235.961426 186.217056,236.128952 186.222214,245.025345 
	C186.225784,251.184494 186.161880,257.344360 186.237717,263.502563 
	C186.289307,267.691742 184.351669,269.585938 180.171539,269.538483 
	C173.014542,269.457245 165.854416,269.428009 158.698578,269.550018 
	C154.524033,269.621185 152.479889,267.784576 152.479660,263.631714 
	C152.479233,256.307343 152.243225,248.971039 152.615829,241.665756 
	C152.730621,239.415176 154.504974,237.249252 155.847122,234.332397 
	C152.825226,228.330505 147.965591,224.238480 139.180130,225.339493 
	C132.085403,226.228622 131.994049,225.509811 131.990265,218.370880 
	C131.988052,214.209290 132.112732,210.042969 131.951584,205.887634 
	C131.827820,202.695541 133.259628,201.261734 136.308517,201.172867 
	C137.306564,201.143784 138.334198,201.002548 139.300293,201.177612 
	C149.679123,203.058334 156.889297,199.041092 160.513977,190.273270 
	C159.780212,186.571671 158.776443,183.510788 158.642517,180.412292 
	C158.369614,174.098602 158.646713,167.763275 158.540924,161.439484 
	C158.466019,156.960983 160.667740,155.115448 164.951355,155.143539 
	C171.942535,155.189377 178.934555,155.195511 185.925583,155.140472 
	C190.256790,155.106400 192.354980,157.053986 192.296341,161.481720 
	C192.201569,168.638397 192.222260,175.797653 192.286301,182.955002 
	C192.326263,187.421753 190.111969,189.787384 185.813370,188.931885 
	C173.172440,186.416092 164.497208,191.523239 158.735138,202.443848 
	C157.491577,204.800705 156.767502,207.465836 156.066391,210.059845 
	C155.730957,211.300888 156.201752,212.741211 155.977112,214.033890 
	C154.580124,222.073151 157.279419,228.564468 163.548233,234.172028 
z"/>
<path fill="#37B4FC" opacity="1.000000" stroke="none" 
	d="
M250.356018,166.924988 
	C247.604858,168.495392 245.050903,169.691620 242.251587,171.002777 
	C242.316849,171.199463 242.545288,171.979340 242.831757,172.737289 
	C246.776428,183.174316 247.010956,183.315323 258.263611,182.144989 
	C262.644043,181.689423 266.263550,176.809021 266.125244,172.521896 
	C265.862183,164.366013 265.726837,156.176300 266.261688,148.048218 
	C266.375519,146.318527 269.491882,143.526627 271.377380,143.394211 
	C279.004456,142.858521 286.691956,143.100937 294.355286,143.200211 
	C297.968842,143.247040 299.850464,145.366653 299.879211,148.933167 
	C299.939606,156.430679 299.952301,163.929657 299.871582,171.426819 
	C299.830017,175.288574 297.661652,177.161957 293.837097,177.166870 
	C288.838379,177.173309 283.823273,176.938217 278.848267,177.283493 
	C276.545990,177.443283 274.177765,178.456192 272.088013,179.555084 
	C264.059967,183.776657 261.729980,190.508881 262.666840,199.370010 
	C263.421600,206.508713 262.380920,206.997757 255.208359,207.005554 
	C251.209381,207.009888 247.207611,206.912521 243.212250,207.032486 
	C239.648895,207.139496 237.750229,205.585831 238.029755,202.015823 
	C238.550781,195.361511 239.844330,188.706375 239.666473,182.082474 
	C239.565765,178.331665 237.513535,174.457977 235.624619,171.034485 
	C235.037994,169.971313 232.100662,169.884048 230.242691,169.894852 
	C216.747086,169.973267 216.843216,170.577148 217.025024,156.378662 
	C217.086884,151.547348 217.057480,146.714478 217.031998,141.882523 
	C217.011383,137.977493 218.932388,136.011017 222.817886,136.002213 
	C230.315918,135.985214 237.814026,135.994827 245.312103,136.000763 
	C248.718689,136.003464 250.830032,137.783096 250.854080,141.104111 
	C250.915527,149.585159 250.673721,158.068436 250.356018,166.924988 
z"/>
<path fill="#37B3FB" opacity="1.000000" stroke="none" 
	d="
M223.167282,285.008087 
	C214.441116,284.990448 214.208740,284.766815 214.202988,276.672302 
	C214.199661,272.009613 214.178101,267.346527 214.232864,262.684418 
	C214.270538,259.478210 215.954559,257.203674 219.162918,257.925079 
	C229.237839,260.190430 233.081131,254.146362 235.738235,246.197678 
	C235.272232,246.281265 234.806229,246.364853 234.340210,246.448441 
	C233.553528,243.542831 232.322250,240.673431 232.081924,237.723297 
	C231.698730,233.019501 227.222092,226.633911 222.668854,226.179749 
	C220.415054,225.954926 218.025238,227.680878 215.671585,227.758942 
	C208.685150,227.990677 201.684875,227.763458 194.692444,227.872131 
	C190.449951,227.938065 188.603485,225.926376 188.620926,221.818878 
	C188.652054,214.491852 188.663269,207.164429 188.618240,199.837555 
	C188.594086,195.909119 190.462891,193.987518 194.378082,193.992157 
	C201.705261,194.000854 209.032791,194.038513 216.359467,193.976959 
	C220.608704,193.941269 222.368423,196.094299 222.326462,200.162430 
	C222.278366,204.824646 222.306244,209.487854 222.326279,214.150513 
	C222.351074,219.921814 228.697327,224.804626 234.474487,224.196426 
	C239.416489,223.676163 244.472885,223.781052 249.431229,224.187790 
	C250.740540,224.295197 252.783463,226.449112 252.921707,227.821243 
	C253.370132,232.272278 253.363159,236.823059 252.930511,241.277054 
	C252.795944,242.662582 250.488388,245.126083 249.619843,244.946579 
	C242.896332,243.557114 240.962708,248.114746 238.943466,252.805496 
	C238.359512,254.162018 237.649948,255.464493 236.832703,257.128204 
	C244.081223,259.078094 240.592850,265.256714 242.234528,270.444397 
	C248.277222,270.444397 254.977798,271.800659 260.709961,270.027100 
	C265.535187,268.534149 270.075409,267.970978 274.910370,267.799286 
	C277.820129,267.695953 279.367188,268.758453 279.095734,271.838196 
	C279.066620,272.168579 279.088959,272.504028 279.095367,272.836975 
	C279.320648,284.556610 278.209900,285.416443 266.350159,283.874146 
	C261.433716,283.234833 263.644440,279.406860 262.562225,276.423767 
	C255.894135,276.423767 249.030060,276.423767 241.906036,276.423767 
	C241.804504,277.579498 241.631165,278.863831 241.590027,280.152374 
	C241.476273,283.715485 239.620377,285.143524 236.132004,285.036652 
	C231.972656,284.909180 227.806351,285.007538 223.167282,285.008087 
z"/>
<path fill="#37B2FA" opacity="1.000000" stroke="none" 
	d="
M330.746185,207.287628 
	C330.190491,206.224274 329.661865,205.529877 329.436523,204.748077 
	C327.477600,197.951355 323.139801,195.271118 316.100769,196.471161 
	C311.460022,197.262344 309.369568,195.090500 309.690979,190.230698 
	C309.987000,185.755585 309.826416,181.244232 309.735199,176.751541 
	C309.669312,173.507339 310.826019,171.723801 314.350952,171.795959 
	C319.509247,171.901550 324.672302,171.886719 329.831360,171.802979 
	C333.055908,171.750656 334.640900,173.400406 334.268250,176.386169 
	C333.426514,183.129517 336.657684,190.284058 332.218140,196.708908 
	C331.885559,197.190186 332.664612,198.550659 333.089905,199.422943 
	C334.182159,201.663223 335.605347,203.770020 336.466156,206.089783 
	C338.557587,211.726013 341.595306,215.403534 348.468445,214.206711 
	C349.562042,214.016281 352.197693,216.529053 352.309784,217.936295 
	C352.757690,223.559128 352.760284,229.260986 352.299896,234.882187 
	C352.184143,236.295639 349.823792,238.519638 348.345215,238.648193 
	C343.058472,239.107819 337.673492,239.159546 332.401306,238.622696 
	C330.828583,238.462524 328.424408,235.977310 328.263184,234.370544 
	C327.733978,229.096558 327.649261,223.688599 328.264771,218.434143 
	C328.503632,216.395157 331.068115,214.628555 333.109833,212.063705 
	C332.812836,211.462143 331.863342,209.539093 330.746185,207.287628 
z"/>
</svg>